<svg xmlns="http://www.w3.org/2000/svg" viewBox="0 0 1200 1500" role="img" aria-label="Visuel Dashboard Live ToqueTop">
  <defs>
    <linearGradient id="bg" x1="0" y1="0" x2="1" y2="1">
      <stop offset="0" stop-color="#111917"/>
      <stop offset="0.52" stop-color="#2e5f50"/>
      <stop offset="1" stop-color="#0d1110"/>
    </linearGradient>
    <radialGradient id="glow" cx="74%" cy="18%" r="58%">
      <stop offset="0" stop-color="#ead6bd" stop-opacity="0.55"/>
      <stop offset="1" stop-color="#ead6bd" stop-opacity="0"/>
    </radialGradient>
    <filter id="shadow" x="-20%" y="-20%" width="140%" height="140%">
      <feDropShadow dx="0" dy="32" stdDeviation="30" flood-color="#000" flood-opacity="0.32"/>
    </filter>
  </defs>
  <rect width="1200" height="1500" fill="url(#bg)"/>
  <rect width="1200" height="1500" fill="url(#glow)"/>
  <g opacity="0.16">
    <path d="M0 1010c190-78 314-48 458-18 178 38 364 75 742-60v568H0z" fill="#000"/>
    <path d="M0 0h1200v1500H0z" fill="#fff" opacity="0.05"/>
  </g>
  <g transform="translate(140 410)" filter="url(#shadow)">
    <rect x="0" y="0" width="920" height="640" rx="34" fill="#f7f1e8"/>
    <rect x="56" y="56" width="808" height="96" rx="18" fill="#ffffff"/>
    <rect x="56" y="188" width="236" height="166" rx="18" fill="#ffffff"/>
    <rect x="342" y="188" width="236" height="166" rx="18" fill="#ffffff"/>
    <rect x="628" y="188" width="236" height="166" rx="18" fill="#ffffff"/>
    <rect x="56" y="398" width="808" height="186" rx="18" fill="#ffffff"/>
    <circle cx="126" cy="480" r="24" fill="#2f6b5a"/>
    <circle cx="212" cy="480" r="24" fill="#d69b49"/>
    <circle cx="298" cy="480" r="24" fill="#9e2f2f"/>
    <path d="M390 500h372" stroke="#19211f" stroke-width="22" stroke-linecap="round" opacity="0.16"/>
    <path d="M390 550h270" stroke="#19211f" stroke-width="18" stroke-linecap="round" opacity="0.12"/>
    <path d="M106 116h350" stroke="#19211f" stroke-width="22" stroke-linecap="round" opacity="0.2"/>
    <path d="M642 116h172" stroke="#2f6b5a" stroke-width="22" stroke-linecap="round"/>
  </g>
  <g transform="translate(138 1130)">
    <text x="0" y="0" fill="#ffffff" font-family="Arial, Helvetica, sans-serif" font-size="74" font-weight="900" letter-spacing="2">
      Dashboard Live
    </text>
    <text x="0" y="64" fill="#ead6bd" font-family="Arial, Helvetica, sans-serif" font-size="30" font-weight="700">
      Reservations, salle et clients en temps reel.
    </text>
  </g>
</svg>
