<svg xmlns="http://www.w3.org/2000/svg" viewBox="0 0 420 96" role="img" aria-labelledby="title">
  <title id="title">ToqueTop</title>
  <rect width="420" height="96" fill="none"/>
  <g fill="#1f2228">
    <path d="M41.7 70.5V31.2H27.2V20h42.6v11.2H55.3v39.3H41.7Z"/>
    <path d="M89.3 71.6c-11.5 0-20.2-8-20.2-19.3S77.8 33 89.3 33s20.2 8 20.2 19.3-8.7 19.3-20.2 19.3Zm0-11c4.3 0 7.4-3.2 7.4-8.3s-3.1-8.3-7.4-8.3-7.4 3.2-7.4 8.3 3.1 8.3 7.4 8.3Z"/>
    <path d="M131.7 86.1V67.2c-2.3 2.8-5.9 4.4-10 4.4-9.3 0-16.2-7.8-16.2-19.3S112.4 33 121.7 33c4.5 0 8.1 1.9 10.4 5v-4h12.4v52.1h-12.8Zm-6.5-25.5c4.1 0 7-3.2 7-8.3s-2.9-8.3-7-8.3-7 3.2-7 8.3 2.9 8.3 7 8.3Z"/>
    <path d="M165.3 71.6c-9.4 0-15.1-5.8-15.1-15.8V34h12.8v19.8c0 4.4 2.2 6.7 5.8 6.7 3.9 0 6.4-2.6 6.4-7.4V34H188v36.5h-12.3v-4.3c-2.5 3.4-6.1 5.4-10.4 5.4Z"/>
    <path d="M212.6 71.6c-12.2 0-20.6-7.7-20.6-19.2 0-11.2 8.2-19.4 19.4-19.4 10.8 0 18.8 7.5 18.8 19.2 0 1.1-.1 2.3-.2 3.5h-25.4c1.1 4 4.2 6.2 8.7 6.2 3.5 0 5.8-1 8.1-3.1l6.7 7c-3.6 3.9-8.8 5.8-15.5 5.8Zm-8.1-22.7h13.8c-.6-4-3.2-6.4-6.8-6.4-3.7 0-6.3 2.4-7 6.4Z"/>
    <path d="M258.2 70.5V31.2h-14.5V20h42.6v11.2h-14.5v39.3h-13.6Z"/>
    <path d="M304.7 71.6c-11.5 0-20.2-8-20.2-19.3S293.2 33 304.7 33s20.2 8 20.2 19.3-8.7 19.3-20.2 19.3Zm0-11c4.3 0 7.4-3.2 7.4-8.3s-3.1-8.3-7.4-8.3-7.4 3.2-7.4 8.3 3.1 8.3 7.4 8.3Z"/>
    <path d="M329.3 86.1V34h12.4v4c2.3-3.1 5.9-5 10.4-5 9.3 0 16.2 7.8 16.2 19.3s-6.9 19.3-16.2 19.3c-4.1 0-7.7-1.6-10-4.4v18.9h-12.8Zm19.3-25.5c4.1 0 7-3.2 7-8.3s-2.9-8.3-7-8.3-7 3.2-7 8.3 2.9 8.3 7 8.3Z"/>
  </g>
  <g transform="translate(373 21)">
    <path d="M22 0c12.1 0 22 9.9 22 22 0 16.7-22 33-22 33S0 38.7 0 22C0 9.9 9.9 0 22 0Z" fill="#ead6bd"/>
    <circle cx="22" cy="22" r="14" fill="#1f2228"/>
    <path d="M17 12v21M13 12v8M21 12v8M29 12l-5 11h5v10" fill="none" stroke="#ead6bd" stroke-width="3" stroke-linecap="round" stroke-linejoin="round"/>
  </g>
  <path d="M58 82h292" stroke="#ead6bd" stroke-width="3" stroke-linecap="round"/>
</svg>
